<mxfile host="app.diagrams.net" modified="2023-10-29T04:50:47.404Z" agent="Mozilla/5.0 (Windows NT 10.0; Win64; x64) AppleWebKit/537.36 (KHTML, like Gecko) Chrome/117.0.0.0 Safari/537.36" etag="bvhJc_expzB1u5FQyg3H" version="22.0.8" type="github">
  <diagram name="Page-1" id="58cdce13-f638-feb5-8d6f-7d28b1aa9fa0">
    <mxGraphModel dx="1235" dy="638" grid="1" gridSize="10" guides="1" tooltips="1" connect="1" arrows="1" fold="1" page="1" pageScale="1" pageWidth="1100" pageHeight="850" background="none" math="0" shadow="0">
      <root>
        <mxCell id="0" />
        <mxCell id="1" parent="0" />
        <mxCell id="L2Z0C3VYRIcAhUu6Ymfk-1" value="管理员&lt;br&gt;（from 角色用例）" style="shape=umlActor;verticalLabelPosition=bottom;verticalAlign=top;html=1;" vertex="1" parent="1">
          <mxGeometry x="130" y="342" width="20" height="38" as="geometry" />
        </mxCell>
        <mxCell id="L2Z0C3VYRIcAhUu6Ymfk-2" value="" style="endArrow=block;endFill=1;html=1;edgeStyle=orthogonalEdgeStyle;align=left;verticalAlign=top;rounded=0;" edge="1" parent="1">
          <mxGeometry x="-1" relative="1" as="geometry">
            <mxPoint x="180" y="370" as="sourcePoint" />
            <mxPoint x="340" y="370" as="targetPoint" />
            <mxPoint as="offset" />
          </mxGeometry>
        </mxCell>
        <mxCell id="L2Z0C3VYRIcAhUu6Ymfk-5" value="" style="ellipse;whiteSpace=wrap;html=1;" vertex="1" parent="1">
          <mxGeometry x="350" y="342" width="80" height="50" as="geometry" />
        </mxCell>
        <mxCell id="L2Z0C3VYRIcAhUu6Ymfk-6" value="登录系统&lt;br&gt;（ from 角色用例）" style="text;html=1;strokeColor=none;fillColor=none;align=center;verticalAlign=middle;whiteSpace=wrap;rounded=0;" vertex="1" parent="1">
          <mxGeometry x="360" y="404" width="60" height="30" as="geometry" />
        </mxCell>
        <mxCell id="L2Z0C3VYRIcAhUu6Ymfk-7" value="" style="endArrow=classic;html=1;rounded=0;" edge="1" parent="1">
          <mxGeometry width="50" height="50" relative="1" as="geometry">
            <mxPoint x="690" y="130" as="sourcePoint" />
            <mxPoint x="870" y="60" as="targetPoint" />
          </mxGeometry>
        </mxCell>
        <mxCell id="L2Z0C3VYRIcAhUu6Ymfk-8" value="" style="ellipse;whiteSpace=wrap;html=1;aspect=fixed;" vertex="1" parent="1">
          <mxGeometry x="880" y="30" width="50" height="50" as="geometry" />
        </mxCell>
        <mxCell id="L2Z0C3VYRIcAhUu6Ymfk-9" value="&amp;lt;&amp;lt;include&amp;gt;&amp;gt;" style="text;align=center;fontStyle=1;verticalAlign=middle;spacingLeft=3;spacingRight=3;strokeColor=none;rotatable=0;points=[[0,0.5],[1,0.5]];portConstraint=eastwest;html=1;" vertex="1" parent="1">
          <mxGeometry x="710" y="60" width="80" height="26" as="geometry" />
        </mxCell>
        <mxCell id="L2Z0C3VYRIcAhUu6Ymfk-10" value="" style="endArrow=classic;html=1;rounded=0;" edge="1" parent="1">
          <mxGeometry width="50" height="50" relative="1" as="geometry">
            <mxPoint x="700" y="148" as="sourcePoint" />
            <mxPoint x="890" y="160" as="targetPoint" />
          </mxGeometry>
        </mxCell>
        <mxCell id="L2Z0C3VYRIcAhUu6Ymfk-11" value="" style="ellipse;whiteSpace=wrap;html=1;aspect=fixed;" vertex="1" parent="1">
          <mxGeometry x="900" y="140" width="50" height="50" as="geometry" />
        </mxCell>
        <mxCell id="L2Z0C3VYRIcAhUu6Ymfk-12" value="&amp;lt;&amp;lt;include&amp;gt;&amp;gt;" style="text;align=center;fontStyle=1;verticalAlign=middle;spacingLeft=3;spacingRight=3;strokeColor=none;rotatable=0;points=[[0,0.5],[1,0.5]];portConstraint=eastwest;html=1;" vertex="1" parent="1">
          <mxGeometry x="760" y="120" width="80" height="26" as="geometry" />
        </mxCell>
        <mxCell id="L2Z0C3VYRIcAhUu6Ymfk-13" value="查找学生" style="text;html=1;strokeColor=none;fillColor=none;align=center;verticalAlign=middle;whiteSpace=wrap;rounded=0;" vertex="1" parent="1">
          <mxGeometry x="890" y="104" width="60" height="30" as="geometry" />
        </mxCell>
        <mxCell id="L2Z0C3VYRIcAhUu6Ymfk-14" value="" style="endArrow=classic;html=1;rounded=0;" edge="1" parent="1">
          <mxGeometry width="50" height="50" relative="1" as="geometry">
            <mxPoint x="640" y="210" as="sourcePoint" />
            <mxPoint x="790" y="270" as="targetPoint" />
          </mxGeometry>
        </mxCell>
        <mxCell id="L2Z0C3VYRIcAhUu6Ymfk-15" value="" style="ellipse;whiteSpace=wrap;html=1;aspect=fixed;" vertex="1" parent="1">
          <mxGeometry x="800" y="256" width="50" height="50" as="geometry" />
        </mxCell>
        <mxCell id="L2Z0C3VYRIcAhUu6Ymfk-16" value="&amp;lt;&amp;lt;include&amp;gt;&amp;gt;" style="text;align=center;fontStyle=1;verticalAlign=middle;spacingLeft=3;spacingRight=3;strokeColor=none;rotatable=0;points=[[0,0.5],[1,0.5]];portConstraint=eastwest;html=1;" vertex="1" parent="1">
          <mxGeometry x="680" y="200" width="80" height="26" as="geometry" />
        </mxCell>
        <mxCell id="L2Z0C3VYRIcAhUu6Ymfk-17" value="" style="endArrow=classic;html=1;rounded=0;" edge="1" parent="1">
          <mxGeometry width="50" height="50" relative="1" as="geometry">
            <mxPoint x="930" y="200" as="sourcePoint" />
            <mxPoint x="980" y="320" as="targetPoint" />
          </mxGeometry>
        </mxCell>
        <mxCell id="L2Z0C3VYRIcAhUu6Ymfk-18" value="" style="ellipse;whiteSpace=wrap;html=1;aspect=fixed;" vertex="1" parent="1">
          <mxGeometry x="990" y="306" width="50" height="50" as="geometry" />
        </mxCell>
        <mxCell id="L2Z0C3VYRIcAhUu6Ymfk-19" value="&amp;lt;&amp;lt;include&amp;gt;&amp;gt;" style="text;align=center;fontStyle=1;verticalAlign=middle;spacingLeft=3;spacingRight=3;strokeColor=none;rotatable=0;points=[[0,0.5],[1,0.5]];portConstraint=eastwest;html=1;" vertex="1" parent="1">
          <mxGeometry x="960" y="220" width="80" height="26" as="geometry" />
        </mxCell>
        <mxCell id="L2Z0C3VYRIcAhUu6Ymfk-20" value="创建学生账号" style="text;html=1;strokeColor=none;fillColor=none;align=center;verticalAlign=middle;whiteSpace=wrap;rounded=0;" vertex="1" parent="1">
          <mxGeometry x="795" y="210" width="60" height="30" as="geometry" />
        </mxCell>
        <mxCell id="L2Z0C3VYRIcAhUu6Ymfk-21" value="修改学生信息" style="text;html=1;strokeColor=none;fillColor=none;align=center;verticalAlign=middle;whiteSpace=wrap;rounded=0;" vertex="1" parent="1">
          <mxGeometry x="900" y="298" width="70" height="44" as="geometry" />
        </mxCell>
        <mxCell id="L2Z0C3VYRIcAhUu6Ymfk-22" value="" style="ellipse;whiteSpace=wrap;html=1;" vertex="1" parent="1">
          <mxGeometry x="590" y="128" width="80" height="50" as="geometry" />
        </mxCell>
        <mxCell id="L2Z0C3VYRIcAhUu6Ymfk-23" value="学生管理" style="text;html=1;strokeColor=none;fillColor=none;align=center;verticalAlign=middle;whiteSpace=wrap;rounded=0;" vertex="1" parent="1">
          <mxGeometry x="600" y="190" width="60" height="30" as="geometry" />
        </mxCell>
        <mxCell id="L2Z0C3VYRIcAhUu6Ymfk-24" value="" style="endArrow=classic;html=1;rounded=0;" edge="1" parent="1">
          <mxGeometry width="50" height="50" relative="1" as="geometry">
            <mxPoint x="420" y="340" as="sourcePoint" />
            <mxPoint x="580" y="190" as="targetPoint" />
          </mxGeometry>
        </mxCell>
        <mxCell id="L2Z0C3VYRIcAhUu6Ymfk-25" value="" style="endArrow=classic;html=1;rounded=0;" edge="1" parent="1">
          <mxGeometry width="50" height="50" relative="1" as="geometry">
            <mxPoint x="730" y="480" as="sourcePoint" />
            <mxPoint x="910" y="410" as="targetPoint" />
          </mxGeometry>
        </mxCell>
        <mxCell id="L2Z0C3VYRIcAhUu6Ymfk-26" value="" style="ellipse;whiteSpace=wrap;html=1;aspect=fixed;" vertex="1" parent="1">
          <mxGeometry x="920" y="380" width="50" height="50" as="geometry" />
        </mxCell>
        <mxCell id="L2Z0C3VYRIcAhUu6Ymfk-27" value="&amp;lt;&amp;lt;include&amp;gt;&amp;gt;" style="text;align=center;fontStyle=1;verticalAlign=middle;spacingLeft=3;spacingRight=3;strokeColor=none;rotatable=0;points=[[0,0.5],[1,0.5]];portConstraint=eastwest;html=1;" vertex="1" parent="1">
          <mxGeometry x="750" y="410" width="80" height="26" as="geometry" />
        </mxCell>
        <mxCell id="L2Z0C3VYRIcAhUu6Ymfk-28" value="" style="endArrow=classic;html=1;rounded=0;" edge="1" parent="1">
          <mxGeometry width="50" height="50" relative="1" as="geometry">
            <mxPoint x="740" y="498" as="sourcePoint" />
            <mxPoint x="930" y="510" as="targetPoint" />
          </mxGeometry>
        </mxCell>
        <mxCell id="L2Z0C3VYRIcAhUu6Ymfk-29" value="" style="ellipse;whiteSpace=wrap;html=1;aspect=fixed;" vertex="1" parent="1">
          <mxGeometry x="940" y="490" width="50" height="50" as="geometry" />
        </mxCell>
        <mxCell id="L2Z0C3VYRIcAhUu6Ymfk-30" value="&amp;lt;&amp;lt;include&amp;gt;&amp;gt;" style="text;align=center;fontStyle=1;verticalAlign=middle;spacingLeft=3;spacingRight=3;strokeColor=none;rotatable=0;points=[[0,0.5],[1,0.5]];portConstraint=eastwest;html=1;" vertex="1" parent="1">
          <mxGeometry x="800" y="470" width="80" height="26" as="geometry" />
        </mxCell>
        <mxCell id="L2Z0C3VYRIcAhUu6Ymfk-31" value="查找教师" style="text;html=1;strokeColor=none;fillColor=none;align=center;verticalAlign=middle;whiteSpace=wrap;rounded=0;" vertex="1" parent="1">
          <mxGeometry x="930" y="454" width="60" height="30" as="geometry" />
        </mxCell>
        <mxCell id="L2Z0C3VYRIcAhUu6Ymfk-32" value="" style="endArrow=classic;html=1;rounded=0;" edge="1" parent="1">
          <mxGeometry width="50" height="50" relative="1" as="geometry">
            <mxPoint x="680" y="560" as="sourcePoint" />
            <mxPoint x="830" y="620" as="targetPoint" />
          </mxGeometry>
        </mxCell>
        <mxCell id="L2Z0C3VYRIcAhUu6Ymfk-33" value="" style="ellipse;whiteSpace=wrap;html=1;aspect=fixed;" vertex="1" parent="1">
          <mxGeometry x="840" y="606" width="50" height="50" as="geometry" />
        </mxCell>
        <mxCell id="L2Z0C3VYRIcAhUu6Ymfk-34" value="&amp;lt;&amp;lt;include&amp;gt;&amp;gt;" style="text;align=center;fontStyle=1;verticalAlign=middle;spacingLeft=3;spacingRight=3;strokeColor=none;rotatable=0;points=[[0,0.5],[1,0.5]];portConstraint=eastwest;html=1;" vertex="1" parent="1">
          <mxGeometry x="720" y="550" width="80" height="26" as="geometry" />
        </mxCell>
        <mxCell id="L2Z0C3VYRIcAhUu6Ymfk-35" value="" style="endArrow=classic;html=1;rounded=0;" edge="1" parent="1">
          <mxGeometry width="50" height="50" relative="1" as="geometry">
            <mxPoint x="970" y="550" as="sourcePoint" />
            <mxPoint x="1020" y="670" as="targetPoint" />
          </mxGeometry>
        </mxCell>
        <mxCell id="L2Z0C3VYRIcAhUu6Ymfk-36" value="" style="ellipse;whiteSpace=wrap;html=1;aspect=fixed;" vertex="1" parent="1">
          <mxGeometry x="1030" y="656" width="50" height="50" as="geometry" />
        </mxCell>
        <mxCell id="L2Z0C3VYRIcAhUu6Ymfk-37" value="&amp;lt;&amp;lt;include&amp;gt;&amp;gt;" style="text;align=center;fontStyle=1;verticalAlign=middle;spacingLeft=3;spacingRight=3;strokeColor=none;rotatable=0;points=[[0,0.5],[1,0.5]];portConstraint=eastwest;html=1;" vertex="1" parent="1">
          <mxGeometry x="1000" y="570" width="80" height="26" as="geometry" />
        </mxCell>
        <mxCell id="L2Z0C3VYRIcAhUu6Ymfk-38" value="创建教师账号" style="text;html=1;strokeColor=none;fillColor=none;align=center;verticalAlign=middle;whiteSpace=wrap;rounded=0;" vertex="1" parent="1">
          <mxGeometry x="835" y="560" width="60" height="30" as="geometry" />
        </mxCell>
        <mxCell id="L2Z0C3VYRIcAhUu6Ymfk-39" value="修改教师信息" style="text;html=1;strokeColor=none;fillColor=none;align=center;verticalAlign=middle;whiteSpace=wrap;rounded=0;" vertex="1" parent="1">
          <mxGeometry x="940" y="648" width="70" height="44" as="geometry" />
        </mxCell>
        <mxCell id="L2Z0C3VYRIcAhUu6Ymfk-40" value="" style="ellipse;whiteSpace=wrap;html=1;" vertex="1" parent="1">
          <mxGeometry x="630" y="478" width="80" height="50" as="geometry" />
        </mxCell>
        <mxCell id="L2Z0C3VYRIcAhUu6Ymfk-41" value="教师管理" style="text;html=1;strokeColor=none;fillColor=none;align=center;verticalAlign=middle;whiteSpace=wrap;rounded=0;" vertex="1" parent="1">
          <mxGeometry x="640" y="540" width="60" height="30" as="geometry" />
        </mxCell>
        <mxCell id="L2Z0C3VYRIcAhUu6Ymfk-42" value="" style="endArrow=classic;html=1;rounded=0;" edge="1" parent="1">
          <mxGeometry width="50" height="50" relative="1" as="geometry">
            <mxPoint x="430" y="350" as="sourcePoint" />
            <mxPoint x="620" y="490" as="targetPoint" />
          </mxGeometry>
        </mxCell>
        <mxCell id="L2Z0C3VYRIcAhUu6Ymfk-44" value="" style="ellipse;whiteSpace=wrap;html=1;" vertex="1" parent="1">
          <mxGeometry x="280" y="484" width="80" height="50" as="geometry" />
        </mxCell>
        <mxCell id="L2Z0C3VYRIcAhUu6Ymfk-45" value="班级管理" style="text;html=1;strokeColor=none;fillColor=none;align=center;verticalAlign=middle;whiteSpace=wrap;rounded=0;" vertex="1" parent="1">
          <mxGeometry x="290" y="546" width="60" height="30" as="geometry" />
        </mxCell>
        <mxCell id="L2Z0C3VYRIcAhUu6Ymfk-46" value="" style="endArrow=classic;html=1;rounded=0;" edge="1" parent="1">
          <mxGeometry width="50" height="50" relative="1" as="geometry">
            <mxPoint x="400" y="450" as="sourcePoint" />
            <mxPoint x="350" y="470" as="targetPoint" />
          </mxGeometry>
        </mxCell>
        <mxCell id="L2Z0C3VYRIcAhUu6Ymfk-47" value="" style="ellipse;whiteSpace=wrap;html=1;aspect=fixed;" vertex="1" parent="1">
          <mxGeometry x="495" y="616" width="50" height="50" as="geometry" />
        </mxCell>
        <mxCell id="L2Z0C3VYRIcAhUu6Ymfk-48" value="&amp;lt;&amp;lt;include&amp;gt;&amp;gt;" style="text;align=center;fontStyle=1;verticalAlign=middle;spacingLeft=3;spacingRight=3;strokeColor=none;rotatable=0;points=[[0,0.5],[1,0.5]];portConstraint=eastwest;html=1;" vertex="1" parent="1">
          <mxGeometry x="375" y="560" width="80" height="26" as="geometry" />
        </mxCell>
        <mxCell id="L2Z0C3VYRIcAhUu6Ymfk-49" value="创建班级信息" style="text;html=1;strokeColor=none;fillColor=none;align=center;verticalAlign=middle;whiteSpace=wrap;rounded=0;" vertex="1" parent="1">
          <mxGeometry x="490" y="570" width="60" height="30" as="geometry" />
        </mxCell>
        <mxCell id="L2Z0C3VYRIcAhUu6Ymfk-50" value="" style="endArrow=classic;html=1;rounded=0;" edge="1" parent="1">
          <mxGeometry width="50" height="50" relative="1" as="geometry">
            <mxPoint x="370" y="520" as="sourcePoint" />
            <mxPoint x="480" y="620" as="targetPoint" />
          </mxGeometry>
        </mxCell>
        <mxCell id="L2Z0C3VYRIcAhUu6Ymfk-51" value="" style="ellipse;whiteSpace=wrap;html=1;aspect=fixed;" vertex="1" parent="1">
          <mxGeometry x="175" y="630" width="50" height="50" as="geometry" />
        </mxCell>
        <mxCell id="L2Z0C3VYRIcAhUu6Ymfk-52" value="&amp;lt;&amp;lt;include&amp;gt;&amp;gt;" style="text;align=center;fontStyle=1;verticalAlign=middle;spacingLeft=3;spacingRight=3;strokeColor=none;rotatable=0;points=[[0,0.5],[1,0.5]];portConstraint=eastwest;html=1;" vertex="1" parent="1">
          <mxGeometry x="145" y="550" width="80" height="26" as="geometry" />
        </mxCell>
        <mxCell id="L2Z0C3VYRIcAhUu6Ymfk-53" value="修改班级信息" style="text;html=1;strokeColor=none;fillColor=none;align=center;verticalAlign=middle;whiteSpace=wrap;rounded=0;" vertex="1" parent="1">
          <mxGeometry x="165" y="706" width="60" height="30" as="geometry" />
        </mxCell>
        <mxCell id="L2Z0C3VYRIcAhUu6Ymfk-54" value="" style="endArrow=classic;html=1;rounded=0;" edge="1" parent="1">
          <mxGeometry width="50" height="50" relative="1" as="geometry">
            <mxPoint x="270" y="520" as="sourcePoint" />
            <mxPoint x="160" y="634" as="targetPoint" />
          </mxGeometry>
        </mxCell>
      </root>
    </mxGraphModel>
  </diagram>
</mxfile>
